<?xml version="1.0" standalone="no"?><!-- Generator: Gravit.io --><svg xmlns="http://www.w3.org/2000/svg" xmlns:xlink="http://www.w3.org/1999/xlink" style="isolation:isolate" viewBox="392 20 444.857 682.409" width="444.857" height="682.409"><g id="wrap512"><path d=" M 598.667 22.05 C 596.533 23.117 593.6 25.117 592.133 26.317 C 588.4 29.65 397.733 254.584 394.667 259.25 C 392.667 262.317 392 265.517 392 272.584 L 392 281.917 L 489.067 485.25 C 542.533 597.117 587.733 690.584 589.6 692.984 C 594.933 700.05 602.133 702.984 612.8 702.317 C 622.8 701.784 626.4 699.784 632.8 691.784 C 634.8 689.25 681.333 596.05 736.133 484.584 C 846.667 259.917 840.4 274.184 833.733 261.117 C 832 257.784 785.2 203.117 729.6 139.65 C 645.6 43.65 627.6 23.784 623.2 22.05 C 616.4 19.384 603.867 19.25 598.667 22.05 Z  M 710.667 156.584 C 764.533 218.05 808.667 268.85 808.533 269.25 C 808.533 269.65 804.8 272.584 800.4 275.784 L 792.267 281.517 L 785.067 279.117 C 779.6 277.25 778 276.05 778 273.917 C 777.867 264.984 766.933 251.917 756.4 248.184 C 751.6 246.584 750 245.25 750 243.25 C 749.867 234.45 738.8 221.25 728.4 217.517 C 723.6 215.917 722 214.584 722 212.584 C 721.867 203.784 709.067 189.25 699.2 186.584 C 695.2 185.517 694 184.45 694 182.184 C 693.867 173.117 681.867 159.25 671.467 156.05 C 667.2 154.85 666 153.784 666 151.517 C 666 144.584 656.933 132.184 648.667 127.917 C 646.133 126.584 642.667 123.784 641.067 121.517 C 639.467 119.384 634.4 115.65 629.867 113.384 C 614.667 105.784 598.133 108.45 585.467 120.317 C 581.733 123.917 577.067 127.65 575.2 128.717 C 569.867 131.517 562.133 141.117 560.4 147.25 C 558.4 154.184 557.333 155.517 552.533 156.584 C 545.867 158.05 535.467 168.85 532.667 177.25 C 530.133 184.717 529.6 185.25 522.533 187.917 C 514.4 190.85 503.467 204.717 503.333 212.184 C 503.333 213.65 500.267 215.917 494.667 218.584 C 484.8 223.25 478.8 230.184 476.267 239.65 C 474.933 244.984 474 245.784 466.4 249.384 C 456.933 253.917 452 259.517 448.533 269.65 C 446.533 275.517 445.467 276.85 440.8 278.85 L 435.467 281.117 L 427.333 275.117 C 420.133 269.784 419.333 268.85 420.933 266.85 C 426 260.45 602.933 51.917 606.4 48.184 C 608.667 45.784 611.067 44.05 611.6 44.184 C 612.133 44.45 656.667 94.984 710.667 156.584 Z  M 628.4 171.25 C 632.667 173.517 642.133 182.05 653.333 193.25 C 673.867 214.184 677.067 219.384 677.067 232.717 L 677.067 240.984 L 694.933 258.717 C 715.6 279.117 719.333 285.117 719.333 297.784 C 719.333 302.05 718.667 307.917 717.733 310.717 C 716.533 315.117 715.467 316.184 711.467 317.25 C 697.867 320.85 691.467 322.317 686 323.25 L 680 324.317 L 688.133 315.517 C 702.533 300.317 701.733 296.717 678.8 273.65 C 653.333 248.05 652.933 248.05 626.933 274.317 L 608.667 292.85 L 608.667 299.117 C 608.667 305.25 608.933 305.65 620.8 317.917 L 633.067 330.584 L 614.933 330.584 C 594.533 330.584 592.133 330.184 594.267 326.717 C 595.333 324.85 594.933 323.25 592.267 319.117 C 583.733 306.184 584.533 289.517 594.267 275.517 C 595.867 273.384 594.933 272.05 587.067 264.584 C 572 250.184 567.067 250.85 547.6 269.784 C 529.333 287.517 526 292.05 526 299.517 C 526 305.117 526.667 306.184 534.8 314.584 C 539.867 319.917 542.533 323.517 541.067 323.25 C 539.733 322.85 533.6 321.384 527.333 319.917 C 505.2 314.584 506.533 315.25 504.667 308.584 C 502.533 300.717 503.6 289.917 507.333 282.45 C 509.067 279.25 518 268.717 527.467 259.25 L 544.667 241.784 L 544.667 232.984 C 544.667 218.984 547.467 214.184 567.6 193.65 C 591.333 169.65 597.2 166.184 612.8 166.984 C 619.2 167.384 623.467 168.584 628.4 171.25 Z " fill="rgb(245,127,34)"/><path d=" M 587.733 204.184 C 571.867 219.784 568.267 223.917 566.8 228.717 C 566 231.25 566.533 231.65 572.933 232.45 C 583.867 233.917 590.667 237.65 601.467 248.05 L 611.333 257.65 L 621.467 247.917 C 632.267 237.65 639.333 233.784 649.2 232.45 C 654.8 231.65 655.333 231.25 654.533 228.717 C 653.067 223.917 649.467 219.784 633.6 204.184 L 618.267 189.25 L 610.667 189.25 L 603.067 189.25 L 587.733 204.184 Z " fill="rgb(245,127,34)"/></g></svg>